<mxfile host="app.diagrams.net" modified="2023-06-21T07:37:31.964Z" agent="Mozilla/5.0 (Windows NT 10.0; Win64; x64) AppleWebKit/537.36 (KHTML, like Gecko) Chrome/114.0.0.0 Safari/537.36" version="21.5.0" etag="-vIQZWs3RX7yeSOZfcW4" type="github">
  <diagram name="Page-1" id="Rm8_75P62huHGnbhTp_e">
    <mxGraphModel>
      <root>
        <mxCell id="0" />
        <mxCell id="1" parent="0" />
      </root>
    </mxGraphModel>
  </diagram>
</mxfile>
